<svg width="193" height="82" viewBox="0 0 193 82" fill="none" xmlns="http://www.w3.org/2000/svg">
<g clip-path="url(#clip0_1_17)">
<path fill-rule="evenodd" clip-rule="evenodd" d="M2 35.9336L18.5449 10C42.8483 15.3733 55 18.06 55 18.06L45.123 72L2 35.9336Z" stroke="white" stroke-width="3.3125" stroke-linejoin="round"/>
<path d="M18.5828 10L45.2454 72" stroke="white" stroke-width="3.3125"/>
<path d="M2 35.9336L55 18.4842" stroke="white" stroke-width="3.3125"/>
</g>
<path d="M68.2 64V59.776C69.1813 59.7333 69.992 59.6053 70.632 59.392C71.3147 59.1787 71.8267 58.688 72.168 57.92C72.552 57.152 72.744 55.9147 72.744 54.208V29.696C72.744 28.544 72.7653 27.4347 72.808 26.368C72.8933 25.3013 72.9573 24.4907 73 23.936C72.3173 23.9787 71.464 24.0213 70.44 24.064C69.416 24.064 68.6693 24.0853 68.2 24.128V19.2H86.568V23.424C85.6293 23.4667 84.8187 23.5947 84.136 23.808C83.4533 24.0213 82.92 24.512 82.536 25.28C82.1947 26.0053 82.024 27.2427 82.024 28.992V38.72H86.632L91.56 30.336C92.2853 29.056 93.0533 27.776 93.864 26.496C94.6747 25.216 95.3573 24.3413 95.912 23.872C95.2293 23.9147 94.504 23.9573 93.736 24C92.968 24.0427 92.3493 24.0853 91.88 24.128V19.2H107.56V23.424C106.621 23.4667 105.597 23.6373 104.488 23.936C103.421 24.2347 102.312 24.832 101.16 25.728C100.008 26.624 98.8347 28.032 97.64 29.952L91.496 39.808C92.3493 40.3627 93.096 40.96 93.736 41.6C94.4187 42.1973 95.016 42.8587 95.528 43.584L102.12 52.864C102.973 54.0587 103.848 55.1893 104.744 56.256C105.683 57.28 106.643 58.112 107.624 58.752C108.605 59.392 109.565 59.7333 110.504 59.776V64H100.648C100.307 63.9573 99.752 63.5733 98.984 62.848C98.216 62.1227 97.4053 61.248 96.552 60.224C95.6987 59.2 94.9733 58.2827 94.376 57.472L88.04 48.256C87.4853 47.4453 86.8667 46.6133 86.184 45.76C85.544 44.9067 84.9253 44.2667 84.328 43.84H82.024V53.504C82.024 54.656 82.0027 55.7653 81.96 56.832C81.9173 57.8987 81.8533 58.7093 81.768 59.264C82.4507 59.1787 83.304 59.136 84.328 59.136C85.3947 59.0933 86.1413 59.072 86.568 59.072V64H68.2ZM113.187 59.84C114.381 59.84 115.235 59.6053 115.747 59.136C116.259 58.6667 116.579 58.0053 116.707 57.152C116.877 56.256 116.963 55.2533 116.963 54.144V43.52C116.963 42.752 116.984 41.8773 117.027 40.896C117.069 39.872 117.133 38.8907 117.219 37.952C116.536 37.9947 115.725 38.0373 114.786 38.08C113.891 38.08 113.208 38.1013 112.739 38.144V33.28C114.701 33.28 116.365 33.1733 117.731 32.96C119.096 32.7467 120.163 32.4907 120.931 32.192C121.741 31.8933 122.296 31.616 122.595 31.36H126.051V53.696C126.051 54.2933 126.029 55.1467 125.987 56.256C125.944 57.3227 125.88 58.3467 125.795 59.328C126.477 59.2427 127.224 59.2 128.035 59.2C128.888 59.1573 129.528 59.136 129.955 59.136V64H113.187V59.84ZM121.187 26.304C119.736 26.304 118.541 25.792 117.603 24.768C116.664 23.744 116.195 22.5067 116.195 21.056C116.195 19.6053 116.685 18.368 117.667 17.344C118.648 16.32 119.8 15.808 121.123 15.808C122.488 15.808 123.619 16.32 124.515 17.344C125.453 18.368 125.923 19.6053 125.923 21.056C125.923 22.5067 125.496 23.744 124.643 24.768C123.789 25.792 122.637 26.304 121.187 26.304ZM146.546 65.024C145.266 65.024 144.029 64.8747 142.834 64.576C141.639 64.2773 140.573 63.7227 139.634 62.912C138.695 62.0587 137.949 60.8213 137.394 59.2C136.839 57.5787 136.562 55.424 136.562 52.736L136.69 37.312H132.338V32C133.661 31.9573 134.941 31.5093 136.178 30.656C137.415 29.8027 138.461 28.6933 139.314 27.328C140.21 25.9627 140.807 24.5333 141.106 23.04H145.842L145.778 32H153.906V36.928L145.778 37.12L145.714 52.864C145.714 53.8453 145.799 54.8267 145.97 55.808C146.183 56.7467 146.567 57.536 147.122 58.176C147.677 58.7733 148.487 59.072 149.554 59.072C150.151 59.072 150.962 58.8587 151.986 58.432C153.053 58.0053 154.183 56.9387 155.378 55.232L158.45 58.112C157.298 59.8187 156.103 61.1413 154.866 62.08C153.629 63.0187 152.434 63.7013 151.282 64.128C150.173 64.5547 149.191 64.8107 148.338 64.896C147.485 64.9813 146.887 65.024 146.546 65.024ZM175.48 65.024C172.365 65.024 169.613 64.3413 167.224 62.976C164.834 61.568 162.978 59.6053 161.656 57.088C160.333 54.528 159.672 51.52 159.672 48.064C159.672 45.0773 160.333 42.2827 161.656 39.68C162.978 37.0773 164.834 34.9867 167.224 33.408C169.656 31.7867 172.472 30.976 175.672 30.976C177.464 30.976 179.213 31.232 180.92 31.744C182.626 32.2133 184.162 33.0453 185.528 34.24C186.936 35.4347 188.045 37.056 188.856 39.104C189.709 41.152 190.114 43.712 190.072 46.784L169.08 47.168C169.08 49.472 169.357 51.5413 169.912 53.376C170.509 55.2107 171.469 56.6613 172.792 57.728C174.114 58.7947 175.885 59.328 178.104 59.328C178.957 59.328 179.917 59.1787 180.984 58.88C182.093 58.5813 183.202 58.0907 184.312 57.408C185.464 56.6827 186.53 55.7227 187.512 54.528L190.392 57.216C188.856 59.392 187.213 61.056 185.464 62.208C183.714 63.3173 181.965 64.064 180.216 64.448C178.509 64.832 176.93 65.024 175.48 65.024ZM169.464 42.688H181.24C181.197 40.896 180.941 39.488 180.472 38.464C180.045 37.3973 179.448 36.6293 178.68 36.16C177.912 35.6907 177.016 35.456 175.992 35.456C174.114 35.456 172.642 36.1387 171.576 37.504C170.509 38.8267 169.805 40.5547 169.464 42.688Z" fill="white"/>
<defs>
<clipPath id="clip0_1_17">
<rect width="57" height="66" fill="white" transform="translate(0 8)"/>
</clipPath>
</defs>
</svg>
